<svg width="301" height="301" viewBox="0 0 301 301" fill="none" xmlns="http://www.w3.org/2000/svg">
<circle cx="150.787" cy="150.787" r="143.69" fill="url(#paint0_linear_12_2)" stroke="#4A2D24" stroke-width="12.0459"/>
<circle cx="148.779" cy="150.5" r="122.467" fill="url(#paint1_linear_12_2)" stroke="#4A2D24" stroke-width="4.58891"/>
<line x1="120.346" y1="29.9041" x2="131.244" y2="87.8391" stroke="url(#paint2_linear_12_2)" stroke-width="4.58891"/>
<line x1="216.392" y1="47.6239" x2="181.975" y2="101.544" stroke="url(#paint3_linear_12_2)" stroke-width="4.58891"/>
<line x1="77.5322" y1="53.1174" x2="89.0045" y2="69.7519" stroke="url(#paint4_linear_12_2)" stroke-width="4.58891"/>
<line x1="44.0113" y1="86.8039" x2="105.388" y2="118.926" stroke="url(#paint5_linear_12_2)" stroke-width="4.58891"/>
<line x1="32.5958" y1="180.695" x2="93.9725" y2="164.06" stroke="url(#paint6_linear_12_2)" stroke-width="4.58891"/>
<path d="M154.58 114.073L147.283 146.247L114.859 142.422L89.6307 70.0547L154.58 114.073Z" fill="#E2C39C" stroke="#4A2D24" stroke-width="4.58891"/>
<path d="M154.58 114.073L147.929 143.396L134.889 125.86L134.882 125.85L134.875 125.84L95.4743 74.0153L154.58 114.073Z" fill="#4A2D24" stroke="#4A2D24" stroke-width="4.58891"/>
<path d="M183.733 154.483L151.559 147.187L155.384 114.763L227.752 89.5339L183.733 154.483Z" fill="#E2C39C" stroke="#4A2D24" stroke-width="4.58891"/>
<path d="M183.733 154.483L154.41 147.832L171.946 134.792L171.957 134.785L171.966 134.778L223.791 95.3774L183.733 154.483Z" fill="#4A2D24" stroke="#4A2D24" stroke-width="4.58891"/>
<path d="M143.711 183.431L150.857 151.288L183.733 155.197L208.695 227.474L143.711 183.431Z" fill="#E2C39C" stroke="#4A2D24" stroke-width="4.58891"/>
<path d="M143.712 183.433L150.23 154.13L163.415 171.66L163.422 171.669L202.823 223.494L143.712 183.433Z" fill="#4A2D24" stroke="#4A2D24" stroke-width="4.58891"/>
<path d="M114.375 143.614L146.518 150.76L142.61 183.636L70.3321 208.598L114.375 143.614Z" fill="#E2C39C" stroke="#4A2D24" stroke-width="4.58891"/>
<path d="M114.381 143.606L143.864 149.955L126.144 163.32L126.136 163.325L74.3125 202.725L114.381 143.606Z" fill="#4A2D24" stroke="#4A2D24" stroke-width="4.58891"/>
<path d="M180.647 126.45L149.588 146.024L127.091 117.509L164.18 40.7184L180.647 126.45Z" fill="#E2C39C" stroke="#4A2D24" stroke-width="4.58891"/>
<path d="M180.647 126.45L152.062 144.464L155.638 120.146L155.64 120.133L155.641 120.122L165.512 47.6549L180.647 126.45Z" fill="#4A2D24" stroke="#4A2D24" stroke-width="4.58891"/>
<path d="M171.507 180.783L151.932 149.724L180.447 127.227L257.238 164.316L171.507 180.783Z" fill="#E2C39C" stroke="#4A2D24" stroke-width="4.58891"/>
<path d="M171.507 180.783L153.492 152.198L177.81 155.774L177.823 155.776L177.835 155.777L250.302 165.648L171.507 180.783Z" fill="#4A2D24" stroke="#4A2D24" stroke-width="4.58891"/>
<path d="M117.635 171.787L148.551 152.116L171.337 181.05L134.109 257.558L117.635 171.787Z" fill="#E2C39C" stroke="#4A2D24" stroke-width="4.58891"/>
<path d="M117.635 171.788L146.1 153.683L142.644 178.11H142.643L142.642 178.122L132.771 250.591L117.635 171.788Z" fill="#4A2D24" stroke="#4A2D24" stroke-width="4.58891"/>
<path d="M126.17 117.771L145.841 148.687L116.906 171.473L40.3982 134.245L126.17 117.771Z" fill="#E2C39C" stroke="#4A2D24" stroke-width="4.58891"/>
<path d="M126.18 117.769L144.562 146.242L119.844 142.779L119.835 142.778L47.3679 132.907L126.18 117.769Z" fill="#4A2D24" stroke="#4A2D24" stroke-width="4.58891"/>
<defs>
<linearGradient id="paint0_linear_12_2" x1="264.936" y1="53.2728" x2="36.9245" y2="247.728" gradientUnits="userSpaceOnUse">
<stop stop-color="#AF7A4B"/>
<stop offset="1" stop-color="#C69C6C"/>
</linearGradient>
<linearGradient id="paint1_linear_12_2" x1="243.903" y1="69.2383" x2="53.8939" y2="231.284" gradientUnits="userSpaceOnUse">
<stop stop-color="#AF7A4B"/>
<stop offset="1" stop-color="#C69C6C"/>
</linearGradient>
<linearGradient id="paint2_linear_12_2" x1="117.599" y1="30.4207" x2="128.498" y2="88.3557" gradientUnits="userSpaceOnUse">
<stop stop-color="#4A2D24"/>
<stop offset="1" stop-color="#4A2D24" stop-opacity="0"/>
</linearGradient>
<linearGradient id="paint3_linear_12_2" x1="214.036" y1="46.1204" x2="179.62" y2="100.04" gradientUnits="userSpaceOnUse">
<stop stop-color="#4A2D24"/>
<stop offset="1" stop-color="#4A2D24" stop-opacity="0"/>
</linearGradient>
<linearGradient id="paint4_linear_12_2" x1="75.2318" y1="54.7039" x2="86.7041" y2="71.3384" gradientUnits="userSpaceOnUse">
<stop stop-color="#4A2D24"/>
<stop offset="1" stop-color="#4A2D24" stop-opacity="0"/>
</linearGradient>
<linearGradient id="paint5_linear_12_2" x1="42.7155" y1="89.2798" x2="104.092" y2="121.402" gradientUnits="userSpaceOnUse">
<stop stop-color="#4A2D24"/>
<stop offset="1" stop-color="#4A2D24" stop-opacity="0"/>
</linearGradient>
<linearGradient id="paint6_linear_12_2" x1="33.3268" y1="183.392" x2="94.7035" y2="166.757" gradientUnits="userSpaceOnUse">
<stop stop-color="#4A2D24"/>
<stop offset="1" stop-color="#4A2D24" stop-opacity="0"/>
</linearGradient>
</defs>
</svg>
